<svg width="29" height="29" viewBox="0 0 29 29" fill="none" xmlns="http://www.w3.org/2000/svg">
<path d="M17.041 4.55444L8.03919 13.789C7.88109 13.9512 7.7926 14.1688 7.7926 14.3953C7.7926 14.6218 7.88109 14.8394 8.03919 15.0016L17.041 24.2396C17.1147 24.3153 17.2027 24.3754 17.3 24.4164C17.3972 24.4575 17.5017 24.4786 17.6073 24.4786C17.7129 24.4786 17.8174 24.4575 17.9147 24.4164C18.0119 24.3754 18.1 24.3153 18.1736 24.2396C18.3251 24.0845 18.41 23.8763 18.41 23.6594C18.41 23.4426 18.3251 23.2344 18.1736 23.0792L9.70857 14.3953L18.1736 5.71311C18.3246 5.55807 18.4091 5.3502 18.4091 5.13378C18.4091 4.91735 18.3246 4.70948 18.1736 4.55444C18.1 4.4788 18.0119 4.41868 17.9147 4.37763C17.8174 4.33658 17.7129 4.31543 17.6073 4.31543C17.5017 4.31543 17.3972 4.33658 17.3 4.37763C17.2027 4.41868 17.1147 4.4788 17.041 4.55444V4.55444Z" fill="#D0D0D0"/>
</svg>
