<svg width="29" height="29" viewBox="0 0 29 29" fill="none" xmlns="http://www.w3.org/2000/svg">
<path d="M11.9591 4.55444L20.9609 13.789C21.119 13.9512 21.2075 14.1688 21.2075 14.3953C21.2075 14.6218 21.119 14.8394 20.9609 15.0016L11.9591 24.2396C11.8855 24.3153 11.7974 24.3754 11.7001 24.4164C11.6029 24.4575 11.4984 24.4786 11.3928 24.4786C11.2872 24.4786 11.1827 24.4575 11.0855 24.4164C10.9882 24.3754 10.9001 24.3153 10.8265 24.2396C10.675 24.0845 10.5902 23.8763 10.5902 23.6594C10.5902 23.4426 10.675 23.2343 10.8265 23.0792L19.2915 14.3953L10.8265 5.71311C10.6755 5.55807 10.591 5.3502 10.591 5.13378C10.591 4.91735 10.6755 4.70948 10.8265 4.55444C10.9001 4.4788 10.9882 4.41868 11.0855 4.37763C11.1827 4.33658 11.2872 4.31543 11.3928 4.31543C11.4984 4.31543 11.6029 4.33658 11.7001 4.37763C11.7974 4.41868 11.8855 4.4788 11.9591 4.55444Z" fill="#D0D0D0"/>
</svg>
