<svg width="36" height="36" viewBox="0 0 36 36" fill="none" xmlns="http://www.w3.org/2000/svg">
<circle cx="18" cy="18" r="18" fill="#E7E7E7"/>
<path d="M17.4999 15.4956C15.8374 15.4956 14.4956 16.8374 14.4956 18.4999C14.4956 20.1625 15.8374 21.5043 17.4999 21.5043C19.1625 21.5043 20.5043 20.1625 20.5043 18.4999C20.5043 16.8374 19.1625 15.4956 17.4999 15.4956ZM17.4999 20.4526C16.4248 20.4526 15.5473 19.5751 15.5473 18.4999C15.5473 17.4248 16.4248 16.5473 17.4999 16.5473C18.5751 16.5473 19.4526 17.4248 19.4526 18.4999C19.4526 19.5751 18.5751 20.4526 17.4999 20.4526ZM20.6274 14.6723C20.2392 14.6723 19.9257 14.9858 19.9257 15.374C19.9257 15.7622 20.2392 16.0756 20.6274 16.0756C21.0156 16.0756 21.3291 15.7636 21.3291 15.374C21.3292 15.2818 21.3111 15.1905 21.2759 15.1053C21.2407 15.0201 21.189 14.9427 21.1238 14.8776C21.0586 14.8124 20.9812 14.7607 20.896 14.7255C20.8109 14.6903 20.7196 14.6722 20.6274 14.6723ZM23.3564 18.4999C23.3564 17.6914 23.3637 16.8901 23.3183 16.083C23.2729 15.1455 23.059 14.3134 22.3735 13.6279C21.6865 12.9409 20.8559 12.7285 19.9184 12.6831C19.1098 12.6376 18.3085 12.645 17.5014 12.645C16.6928 12.645 15.8916 12.6376 15.0844 12.6831C14.1469 12.7285 13.3149 12.9423 12.6293 13.6279C11.9423 14.3149 11.7299 15.1455 11.6845 16.083C11.6391 16.8915 11.6464 17.6928 11.6464 18.4999C11.6464 19.3071 11.6391 20.1098 11.6845 20.9169C11.7299 21.8544 11.9438 22.6865 12.6293 23.372C13.3164 24.059 14.1469 24.2714 15.0844 24.3168C15.893 24.3623 16.6943 24.3549 17.5014 24.3549C18.31 24.3549 19.1113 24.3623 19.9184 24.3168C20.8559 24.2714 21.6879 24.0576 22.3735 23.372C23.0605 22.685 23.2729 21.8544 23.3183 20.9169C23.3652 20.1098 23.3564 19.3085 23.3564 18.4999ZM22.0673 21.9541C21.9604 22.2207 21.8315 22.4199 21.625 22.6249C21.4184 22.8315 21.2207 22.9604 20.9541 23.0673C20.1835 23.3735 18.354 23.3046 17.4999 23.3046C16.6459 23.3046 14.8149 23.3735 14.0444 23.0688C13.7778 22.9619 13.5786 22.833 13.3735 22.6264C13.1669 22.4199 13.038 22.2221 12.9311 21.9555C12.6264 21.1835 12.6953 19.354 12.6953 18.4999C12.6953 17.6459 12.6264 15.8149 12.9311 15.0444C13.038 14.7778 13.1669 14.5786 13.3735 14.3735C13.58 14.1684 13.7778 14.038 14.0444 13.9311C14.8149 13.6264 16.6459 13.6953 17.4999 13.6953C18.354 13.6953 20.185 13.6264 20.9555 13.9311C21.2221 14.038 21.4213 14.1669 21.6264 14.3735C21.833 14.58 21.9619 14.7778 22.0688 15.0444C22.3735 15.8149 22.3046 17.6459 22.3046 18.4999C22.3046 19.354 22.3735 21.1835 22.0673 21.9541Z" fill="#878787"/>
</svg>
