<svg width="36" height="36" viewBox="0 0 36 36" fill="none" xmlns="http://www.w3.org/2000/svg">
<circle cx="18" cy="18" r="18" fill="#E7E7E7"/>
<path fill-rule="evenodd" clip-rule="evenodd" d="M18.04 22.3601H18.84C18.84 22.3601 19.08 22.3201 19.2 22.2001C19.32 22.0801 19.32 21.8401 19.32 21.8401C19.32 21.8401 19.32 20.8001 19.8 20.6401C20.28 20.4801 20.92 21.6801 21.56 22.1201C22.04 22.4801 22.4 22.4001 22.4 22.4001L24.16 22.3601C24.16 22.3601 25.08 22.3201 24.64 21.5601C24.6 21.5201 24.4 21.0401 23.32 20.0401C22.2 19.0001 22.36 19.2001 23.68 17.4001C24.48 16.3201 24.8 15.6801 24.72 15.3601C24.64 15.0801 24.04 15.1601 24.04 15.1601H22.04C22.04 15.1601 21.88 15.1201 21.8 15.2001C21.68 15.2801 21.64 15.4001 21.64 15.4001C21.64 15.4001 21.32 16.2401 20.92 16.9601C20.04 18.4401 19.68 18.5201 19.56 18.4401C19.24 18.2401 19.32 17.5601 19.32 17.1201C19.32 15.6801 19.56 15.0801 18.88 14.9201C18.68 14.8801 18.52 14.8401 17.96 14.8401C17.24 14.8401 16.64 14.8401 16.32 15.0001C16.08 15.1201 15.92 15.3601 16.04 15.3601C16.16 15.3601 16.48 15.4401 16.64 15.6401C16.8 16.0001 16.8 16.6001 16.8 16.6001C16.8 16.6001 16.92 18.3201 16.52 18.5201C16.24 18.6801 15.88 18.3601 15.08 17.0001C14.68 16.3201 14.36 15.5201 14.36 15.5201C14.36 15.5201 14.32 15.3601 14.2 15.2801C14.08 15.2001 13.88 15.1601 13.88 15.1601H12C12 15.1601 11.72 15.1601 11.6 15.2801C11.52 15.4001 11.6 15.6001 11.6 15.6001C11.6 15.6001 13.08 19.0401 14.76 20.8001C16.32 22.4801 18.04 22.3601 18.04 22.3601Z" fill="#878787"/>
</svg>
