<svg width="36" height="36" viewBox="0 0 36 36" fill="none" xmlns="http://www.w3.org/2000/svg">
<circle cx="18" cy="18" r="18" fill="#E7E7E7"/>
<path d="M24.4956 15.5019C24.4244 15.2378 24.2853 14.9969 24.0921 14.8032C23.8989 14.6096 23.6583 14.4699 23.3943 14.3981C22.4156 14.1294 18.5 14.125 18.5 14.125C18.5 14.125 14.585 14.1206 13.6056 14.3775C13.3418 14.4526 13.1017 14.5942 12.9084 14.7888C12.7152 14.9834 12.5751 15.2245 12.5018 15.4888C12.2437 16.4675 12.2412 18.4975 12.2412 18.4975C12.2412 18.4975 12.2387 20.5375 12.495 21.5063C12.6387 22.0419 13.0606 22.465 13.5968 22.6094C14.5856 22.8781 18.4906 22.8825 18.4906 22.8825C18.4906 22.8825 22.4062 22.8869 23.385 22.6306C23.649 22.559 23.8898 22.4196 24.0835 22.2264C24.2772 22.0331 24.4171 21.7927 24.4893 21.5288C24.7481 20.5506 24.75 18.5213 24.75 18.5213C24.75 18.5213 24.7625 16.4806 24.4956 15.5019ZM17.2475 20.3781L17.2506 16.6281L20.505 18.5063L17.2475 20.3781Z" fill="#878787"/>
</svg>
