<svg width="22" height="22" viewBox="0 0 22 22" fill="none" xmlns="http://www.w3.org/2000/svg">
<g clip-path="url(#clip0_11_19)">
<path d="M0 5.53604V7.94443H3.43933L0 5.53604ZM2.85022 18.9444H7.94444V15.3774L2.85022 18.9444ZM14.0556 15.378V18.9444H19.1492L14.0556 15.378ZM0 14.0555V16.4639L3.44056 14.0555H0ZM19.1504 3.05554H14.0556V6.6226L19.1504 3.05554ZM22 16.4645V14.0555H18.5588L22 16.4645ZM22 7.94443V5.53604L18.5601 7.94443H22ZM7.94444 3.05554H2.85022L7.94444 6.6226V3.05554Z" fill="#00247D"/>
<path d="M15.3633 14.0555L21.2984 18.2117C21.5883 17.9131 21.7966 17.5451 21.9034 17.1429L17.4943 14.0555H15.3633ZM7.94445 14.0555H6.63606L0.701558 18.2111C1.01995 18.535 1.42817 18.7666 1.88589 18.8742L7.94445 14.6318V14.0555ZM14.0556 7.94444H15.3639L21.2984 3.78888C20.9746 3.46027 20.5641 3.23034 20.1147 3.12582L14.0556 7.36816V7.94444ZM6.63606 7.94444L0.701558 3.78888C0.411863 4.0877 0.203389 4.45563 0.0959473 4.85771L4.50511 7.94444H6.63606Z" fill="#CF1B2B"/>
<path d="M22 12.8333H12.8333V18.9444H14.0556V15.378L19.1492 18.9444H19.5556C19.8802 18.9445 20.2016 18.8797 20.5009 18.7539C20.8002 18.628 21.0713 18.4437 21.2984 18.2117L15.3633 14.0555H17.4943L21.9034 17.1429C21.9603 16.9369 22 16.7237 22 16.5V16.4645L18.5588 14.0555H22V12.8333ZM0 12.8333V14.0555H3.44056L0 16.4639V16.5C0 17.1667 0.268278 17.7699 0.701556 18.2111L6.63606 14.0555H7.94444V14.6318L1.88589 18.8735C2.06556 18.9163 2.25133 18.9444 2.44444 18.9444H2.85022L7.94444 15.3774V18.9444H9.16667V12.8333H0ZM22 5.49999C22.0004 4.85953 21.7483 4.24474 21.2984 3.78888L15.3639 7.94443H14.0556V7.36815L20.1147 3.12582C19.9317 3.08092 19.744 3.05734 19.5556 3.05554H19.1504L14.0556 6.6226V3.05554H12.8333V9.16665H22V7.94443H18.5601L22 5.53604V5.49999ZM7.94444 3.05554V6.6226L2.85022 3.05554H2.44444C2.11971 3.0554 1.79823 3.12021 1.49892 3.24614C1.1996 3.37208 0.9285 3.55661 0.701556 3.78888L6.63606 7.94443H4.50511L0.0959444 4.85771C0.0353101 5.06653 0.00303931 5.28256 0 5.49999L0 5.53604L3.43933 7.94443H0V9.16665H9.16667V3.05554H7.94444Z" fill="#EEEEEE"/>
<path d="M12.8333 9.16665V3.05554H9.16667V9.16665H0V12.8333H9.16667V18.9444H12.8333V12.8333H22V9.16665H12.8333Z" fill="#CF1B2B"/>
</g>
<defs>
<clipPath id="clip0_11_19">
<rect width="22" height="22" fill="white"/>
</clipPath>
</defs>
</svg>
